<?xml version="1.0" standalone="no"?>
<!DOCTYPE svg PUBLIC "-//W3C//DTD SVG 20010904//EN"
 "http://www.w3.org/TR/2001/REC-SVG-20010904/DTD/svg10.dtd">
<svg version="1.0" xmlns="http://www.w3.org/2000/svg"
 width="100.000000pt" height="100.000000pt" viewBox="0 0 100.000000 100.000000"
 preserveAspectRatio="xMidYMid meet">

<g transform="translate(0.000000,100.000000) scale(0.100000,-0.100000)"
fill="#000000" stroke="none">
<path d="M725 990 c-9 -14 3 -30 24 -30 34 0 121 -52 153 -92 18 -23 40 -64
49 -92 21 -62 45 -69 42 -12 -3 49 -40 112 -94 160 -65 59 -157 94 -174 66z"/>
<path d="M525 861 c-55 -35 -513 -504 -520 -534 -12 -46 12 -81 141 -207 176
-171 135 -183 461 143 232 231 264 267 270 300 6 38 6 39 -133 178 -150 149
-162 156 -219 120z m103 -181 c97 -59 92 -191 -9 -242 -66 -34 -138 -12 -179
54 -53 87 17 208 120 208 19 0 50 -9 68 -20z m-298 -235 c26 -32 -13 -81 -47
-59 -23 14 -28 41 -13 59 16 19 44 19 60 0z m-100 -100 c26 -32 -13 -81 -47
-59 -23 14 -28 41 -13 59 16 19 44 19 60 0z m220 -20 c15 -18 10 -45 -12 -59
-35 -22 -74 27 -48 59 16 19 44 19 60 0z m-100 -100 c15 -18 10 -45 -12 -59
-35 -22 -74 27 -48 59 16 19 44 19 60 0z"/>
<path d="M530 585 c-15 -18 -10 -45 13 -59 34 -22 73 27 47 59 -16 19 -44 19
-60 0z"/>
<path d="M727 873 c-14 -13 -6 -23 38 -42 37 -16 50 -29 66 -66 21 -47 42 -55
47 -19 8 55 -118 161 -151 127z"/>
</g>
</svg>
