<?xml version="1.0" encoding="UTF-8"?>
<svg version="1.1" xmlns="http://www.w3.org/2000/svg" width="256" height="256">
	<!-- SERVER -->
	<rect width="40" height="75" x="139" y="74" style="fill:none;stroke-width:5;stroke:white" />
	<line x1="144" y1="94" x2="174" y2="94" style="stroke:white;stroke-width:2" />
	<circle r="2" cx="167" cy="82" fill="red" />
	
	<!-- REMOTE -->
	<rect width="20" height="40" x="0" y="0" style="fill:none;stroke-width:5;stroke:white" transform="rotate(45) translate(169, 40)"/>
	<circle r="5" cx="10" cy="9" fill="white" transform="rotate(45) translate(169, 40)"/>
	<circle r="2" cx="7" cy="25" fill="white" transform="rotate(45) translate(169, 40)"/>
	<circle r="2" cx="7" cy="32" fill="white" transform="rotate(45) translate(169, 40)"/>
	<circle r="2" cx="13" cy="25" fill="white" transform="rotate(45) translate(169, 40)"/>
	<circle r="2" cx="13" cy="32" fill="white" transform="rotate(45) translate(169, 40)"/>
	
	<!-- SIGNAL -->
	<path d="M 0 -5 q 10 -10 20 0" stroke="white" stroke-width="4" fill="none" transform="rotate(45) translate(169, 40)"/>
	<path d="M -7 -8 q 17 -15 34 0" stroke="white" stroke-width="4" fill="none" transform="rotate(45) translate(169, 40)"/>
</svg>
